HIERARCHY
ROOT spine
{
	OFFSET 0.000000 -0.016002 0.756810
	CHANNELS 6 Xposition Yposition Zposition Xrotation Yrotation Zrotation
	JOINT spine.001
	{
		OFFSET -0.000000 0.033202 0.400490
		CHANNELS 3 Xrotation Yrotation Zrotation
		JOINT spine.002
		{
			OFFSET 0.000000 -0.016800 0.135600
			CHANNELS 3 Xrotation Yrotation Zrotation
			JOINT spine.003
			{
				OFFSET 0.000000 0.005500 0.172800
				CHANNELS 3 Xrotation Yrotation Zrotation
				JOINT spine.004
				{
					OFFSET 0.000000 0.005500 0.192500
					CHANNELS 6 Xposition Yposition Zposition Xrotation Yrotation Zrotation
					End Site
					{
						OFFSET -0.002595 -0.024400 0.891066
					}
				}
				JOINT shoulder.L
				{
					OFFSET 0.018300 -0.074300 0.139400
					CHANNELS 6 Xposition Yposition Zposition Yrotation Xrotation Zrotation
					JOINT upper_arm.L
					{
						OFFSET 0.305284 0.095100 -0.022257
						CHANNELS 6 Xposition Yposition Zposition Xrotation Yrotation Zrotation
						JOINT forearm.L
						{
							OFFSET 0.317351 0.002465 -0.005579
							CHANNELS 3 Xrotation Yrotation Zrotation
							End Site
							{
								OFFSET 0.342909 -0.021500 -0.023381
							}
						}
					}
				}
				JOINT shoulder.R
				{
					OFFSET -0.018300 -0.074300 0.139400
					CHANNELS 6 Xposition Yposition Zposition Yrotation Xrotation Zrotation
					JOINT upper_arm.R
					{
						OFFSET -0.305284 0.095100 -0.022257
						CHANNELS 6 Xposition Yposition Zposition Xrotation Yrotation Zrotation
						JOINT forearm.R
						{
							OFFSET -0.317351 0.002465 -0.005579
							CHANNELS 3 Xrotation Yrotation Zrotation
							End Site
							{
								OFFSET -0.342909 -0.021500 -0.023381
							}
						}
					}
				}
			}
		}
	}
	JOINT pelvis.L
	{
		OFFSET 0.000000 0.000000 0.000000
		CHANNELS 6 Xposition Yposition Zposition Yrotation Xrotation Zrotation
		End Site
		{
			OFFSET 0.244110 -0.068027 0.028065
		}
	}
	JOINT pelvis.R
	{
		OFFSET -0.000000 0.000000 0.000000
		CHANNELS 6 Xposition Yposition Zposition Yrotation Xrotation Zrotation
		End Site
		{
			OFFSET -0.244110 -0.068027 0.028065
		}
	}
	JOINT thigh.L
	{
		OFFSET 0.247740 -0.008119 -0.056633
		CHANNELS 6 Xposition Yposition Zposition Xrotation Yrotation Zrotation
		JOINT shin.L
		{
			OFFSET -0.024108 0.002021 -0.403683
			CHANNELS 3 Xrotation Yrotation Zrotation
			End Site
			{
				OFFSET -0.001797 -0.032260 -0.352038
			}
		}
	}
	JOINT thigh.R
	{
		OFFSET -0.247740 -0.008119 -0.056633
		CHANNELS 6 Xposition Yposition Zposition Xrotation Yrotation Zrotation
		JOINT shin.R
		{
			OFFSET 0.024108 0.002021 -0.403683
			CHANNELS 3 Xrotation Yrotation Zrotation
			End Site
			{
				OFFSET 0.001797 -0.032260 -0.352038
			}
		}
	}
}
MOTION
Frames: 14
Frame Time: 0.041667
0.000000 0.088581 0.802864 0.612255 0.031316 2.928422 2.352821 -0.352898 -1.996830 -0.000001 0.000000 -0.000000 -0.000000 0.000000 -0.000000 0.000000 0.005500 0.192500 -7.070534 0.198606 -0.007264 0.018300 -0.074300 0.139400 -5.946876 -1.479351 -12.618188 0.279318 0.189649 0.011096 -2.697503 31.585353 2.403655 -2.858288 -18.002897 3.323817 -0.018300 -0.074300 0.139400 -6.472917 1.869160 -1.044804 -0.299027 -0.004385 -0.049884 -5.273156 -32.308099 0.225138 0.018019 -1.017505 -0.031699 0.000000 0.003578 0.000518 -9.046260 19.518481 0.796270 -0.000000 0.000000 -0.000000 -1.807231 0.000005 0.000470 0.240133 -0.002408 0.010506 -7.296474 -0.965693 -0.703835 7.767336 -0.964264 -0.089421 -0.266177 0.015954 0.008371 -5.724585 2.718086 -1.783453 3.198637 -0.915815 0.045266 
0.000000 0.088581 0.802864 0.612255 0.031316 2.928422 2.387758 -0.253601 -2.981566 -0.000000 -0.000000 -0.000000 -0.000000 -0.000000 0.000000 0.000000 0.005500 0.192500 -7.426315 0.180794 0.048152 0.018300 -0.074300 0.139400 -5.946876 -1.479351 -12.618187 0.279319 0.189649 0.011096 -2.635794 31.439306 2.321290 -2.888024 -17.933234 3.284652 -0.018300 -0.074300 0.139400 -6.472916 1.869160 -1.044806 -0.299027 -0.004385 -0.049884 -5.175984 -30.583244 0.578651 0.018019 -1.017505 -0.031698 0.000000 0.003578 0.000518 -9.046260 19.518481 0.796270 -0.000000 0.000000 -0.000000 -1.807231 0.000005 0.000470 0.240133 -0.002408 0.010506 -6.577303 -1.002478 -0.707123 7.767336 -0.964264 -0.089421 -0.266177 0.015954 0.008371 -6.279467 2.745765 -1.780283 3.198638 -0.915815 0.045267 
0.000000 0.088581 0.802864 0.612255 0.031316 2.928422 2.491644 0.013961 -5.667142 0.000001 0.000000 -0.000000 -0.000000 -0.000000 -0.000000 0.000000 0.005500 0.192500 -8.392497 0.130685 0.198087 0.018300 -0.074300 0.139400 -5.946876 -1.479352 -12.618191 0.279318 0.189649 0.011096 -2.451308 31.023699 2.078793 -2.974207 -17.730406 3.170992 -0.018300 -0.074300 0.139400 -6.472916 1.869160 -1.044803 -0.299028 -0.004385 -0.049884 -4.984737 -25.809977 1.596626 0.018018 -1.017504 -0.031699 0.000000 0.003578 0.000518 -9.046260 19.518481 0.796270 -0.000000 0.000000 -0.000000 -1.807231 0.000005 0.000470 0.240133 -0.002408 0.010506 -4.620470 -1.102743 -0.713730 7.767337 -0.964264 -0.089421 -0.266177 0.015954 0.008371 -7.787824 2.820829 -1.770311 3.198639 -0.915816 0.045266 
0.000000 0.088581 0.802864 0.612255 0.031316 2.928422 2.668661 0.401387 -9.654019 0.000000 -0.000000 -0.000000 0.000000 0.000000 0.000000 0.000000 0.005500 0.192500 -9.817407 0.052176 0.417655 0.018300 -0.074300 0.139400 -5.946877 -1.479352 -12.618186 0.279318 0.189649 0.011096 -2.146813 30.370849 1.684604 -3.111898 -17.403459 2.988905 -0.018300 -0.074300 0.139400 -6.472918 1.869160 -1.044802 -0.299027 -0.004385 -0.049884 -4.904924 -18.560474 3.218790 0.018020 -1.017499 -0.031698 0.000000 0.003578 0.000518 -9.046260 19.518481 0.796270 -0.000000 0.000000 -0.000000 -1.807231 0.000005 0.000470 0.240133 -0.002408 0.010506 -1.725846 -1.251326 -0.717217 7.767338 -0.964265 -0.089421 -0.266177 0.015954 0.008371 -10.015794 2.931154 -1.751972 3.198639 -0.915815 0.045266 
0.000000 0.088581 0.802864 0.612255 0.031316 2.928422 2.921012 0.856849 -14.530155 -0.000000 0.000000 -0.000000 0.000000 0.000000 -0.000001 0.000000 0.005500 0.192500 -11.548743 -0.050552 0.681772 0.018300 -0.074300 0.139400 -5.946876 -1.479351 -12.618189 0.279318 0.189649 0.011096 -1.726834 29.511646 1.148706 -3.295752 -16.961218 2.744787 -0.018300 -0.074300 0.139400 -6.472916 1.869160 -1.044808 -0.299028 -0.004385 -0.049884 -5.167941 -9.471776 5.446352 0.018018 -1.017502 -0.031697 0.000000 0.003578 0.000518 -9.046260 19.518481 0.796270 -0.000000 0.000000 -0.000000 -1.807231 0.000005 0.000470 0.240133 -0.002408 0.010506 1.801794 -1.432334 -0.711315 7.767336 -0.964265 -0.089421 -0.266177 0.015954 0.008371 -12.727243 3.064314 -1.723883 3.198638 -0.915815 0.045267 
0.000000 0.088581 0.802864 0.612255 0.031316 2.928422 3.239948 1.327995 -19.861249 -0.000001 0.000000 0.000000 -0.000000 0.000000 0.000001 0.000000 0.005500 0.192500 -13.433284 -0.171420 0.965673 0.018300 -0.074300 0.139400 -5.946877 -1.479352 -12.618187 0.279318 0.189649 0.011096 -1.196789 28.476268 0.482004 -3.520166 -16.412417 2.445252 -0.018300 -0.074300 0.139400 -6.472917 1.869161 -1.044799 -0.299028 -0.004385 -0.049884 -6.010369 0.671408 8.377237 0.018018 -1.017500 -0.031698 0.000000 0.003578 0.000518 -9.046260 19.518481 0.796270 -0.000000 0.000000 -0.000000 -1.807231 0.000005 0.000470 0.240133 -0.002408 0.010506 5.649316 -1.628909 -0.692192 7.767336 -0.964264 -0.089421 -0.266177 0.015954 0.008371 -15.682188 3.207718 -1.686128 3.198639 -0.915815 0.045266 
0.000000 0.088581 0.802864 0.612255 0.031316 2.928422 3.601369 1.767463 -25.196033 -0.000000 -0.000000 0.000001 0.000000 0.000000 0.000002 -0.000000 0.005500 0.192500 -15.317237 -0.301558 1.245452 0.018300 -0.074300 0.139400 -5.946876 -1.479351 -12.618184 0.279318 0.189649 0.011096 -0.562254 27.294768 -0.304332 -3.779416 -15.765745 2.096986 -0.018300 -0.074300 0.139400 -6.472916 1.869160 -1.044801 -0.299028 -0.004385 -0.049884 -7.676503 10.938311 12.204078 0.018019 -1.017499 -0.031698 0.000000 0.003578 0.000518 -9.046260 19.518481 0.796270 -0.000000 0.000000 -0.000000 -1.807231 0.000005 0.000470 0.240133 -0.002408 0.010506 9.497458 -1.823766 -0.659912 7.767335 -0.964264 -0.089422 -0.266177 0.015954 0.008371 -18.637756 3.348991 -1.641011 3.198636 -0.915815 0.045266 
0.000000 0.088581 0.802864 0.612255 0.031316 2.928422 3.966760 2.138631 -30.081874 -0.000000 0.000000 0.000002 0.000000 0.000000 0.000000 0.000000 0.005500 0.192500 -17.046998 -0.429127 1.498522 0.018300 -0.074300 0.139400 -5.946876 -1.479352 -12.618190 0.279318 0.189649 0.011096 0.171671 25.997510 -1.199313 -4.067757 -15.029935 1.706681 -0.018300 -0.074300 0.139400 -6.472916 1.869160 -1.044804 -0.299028 -0.004385 -0.049884 -10.400030 20.332846 17.173828 0.018018 -1.017502 -0.031698 0.000000 0.003578 0.000518 -9.046260 19.518481 0.796270 -0.000000 0.000000 -0.000000 -1.807231 0.000005 0.000470 0.240133 -0.002408 0.010506 13.026760 -2.000185 -0.618866 7.767336 -0.964264 -0.089421 -0.266177 0.015954 0.008371 -21.350902 3.476456 -1.593225 3.198636 -0.915815 0.045266 
0.000000 0.088581 0.802864 0.612255 0.031316 2.928422 4.288371 2.418213 -34.080936 0.000000 0.000000 0.000002 -0.000000 0.000000 0.000003 0.000000 0.005500 0.192500 -18.469875 -0.539784 1.703795 0.018300 -0.074300 0.139400 -5.946877 -1.479352 -12.618188 0.279318 0.189649 0.011096 1.000856 24.615558 -2.192480 -4.379561 -14.213826 1.280899 -0.018300 -0.074300 0.139400 -6.472918 1.869159 -1.044813 -0.299028 -0.004385 -0.049884 -14.310298 27.900756 23.477585 0.018022 -1.017502 -0.031699 0.000000 0.003578 0.000518 -9.046260 19.518481 0.796270 -0.000000 0.000000 -0.000000 -1.807231 0.000005 0.000470 0.240133 -0.002408 0.010506 15.923519 -2.142858 -0.577107 7.767336 -0.964264 -0.089422 -0.266177 0.015954 0.008371 -23.581037 3.579426 -1.549455 3.198638 -0.915815 0.045266 
0.000000 0.088581 0.802864 0.612255 0.031316 2.928422 4.515764 2.593643 -36.776713 0.000000 0.000000 0.000002 -0.000001 0.000000 -0.000002 -0.000000 0.005500 0.192500 -19.434301 -0.617689 1.841369 0.018300 -0.074300 0.139400 -5.946878 -1.479351 -12.618187 0.279318 0.189649 0.011096 1.922538 23.180815 -3.274312 -4.709382 -13.326409 0.826059 -0.018300 -0.074300 0.139400 -6.472917 1.869161 -1.044801 -0.299028 -0.004385 -0.049884 -19.223936 32.810251 31.039207 0.018018 -1.017499 -0.031699 0.000000 0.003578 0.000518 -9.046260 19.518481 0.796270 -0.000000 0.000000 -0.000000 -1.807231 0.000005 0.000470 0.240133 -0.002408 0.010506 17.882183 -2.238041 -0.544808 7.767338 -0.964264 -0.089421 -0.266177 0.015954 0.008371 -25.091274 3.648147 -1.517550 3.198637 -0.915815 0.045266 
0.000000 0.088581 0.802864 0.612255 0.031316 2.928422 4.601195 2.655268 -37.765543 -0.000000 0.000000 0.000003 -0.000000 -0.000000 -0.000000 0.000000 0.005500 0.192500 -19.789367 -0.646952 1.891688 0.018300 -0.074300 0.139400 -5.946878 -1.479351 -12.618186 0.279318 0.189649 0.011096 2.935602 21.726162 -4.436380 -5.052025 -12.376853 0.348320 -0.018300 -0.074300 0.139400 -6.472917 1.869160 -1.044799 -0.299028 -0.004385 -0.049884 -24.413210 34.398803 39.296875 0.018019 -1.017502 -0.031699 0.000000 0.003578 0.000518 -9.046260 19.518481 0.796270 -0.000000 0.000000 -0.000000 -1.807231 0.000005 0.000470 0.240133 -0.002408 0.010506 18.602111 -2.272738 -0.532121 7.767336 -0.964264 -0.089422 -0.266177 0.015954 0.008371 -25.646927 3.673215 -1.505357 3.198640 -0.915815 0.045266 
0.000000 0.088581 0.802864 0.612255 0.031316 2.928422 4.601195 2.655268 -37.765543 -0.000000 0.000000 0.000003 -0.000000 -0.000000 -0.000000 0.000000 0.005500 0.192500 -19.434301 -0.617686 1.841366 0.018300 -0.074300 0.139400 -5.946878 -1.479351 -12.618186 0.279319 0.189649 0.011096 4.040752 20.285382 -5.671486 -5.402623 -11.374533 -0.146413 -0.018300 -0.074300 0.139400 -6.472917 1.869160 -1.044799 -0.299028 -0.004385 -0.049884 -30.201146 32.888027 48.715720 0.018019 -1.017501 -0.031698 0.000000 0.003578 0.000518 -9.046260 19.518481 0.796270 -0.000000 0.000000 -0.000000 -1.807231 0.000005 0.000470 0.240133 -0.002408 0.010506 18.179856 -2.252507 -0.539773 9.701987 -1.044657 -0.121399 -0.266177 0.015954 0.008371 -25.341573 3.659137 -1.512001 3.198637 -0.915815 0.045266 
0.000000 0.088581 0.802864 0.612255 0.031316 2.928422 4.601195 2.655268 -37.765543 -0.000000 0.000000 0.000003 -0.000000 -0.000000 -0.000000 0.000000 0.005500 0.192500 -18.469875 -0.539783 1.703789 0.018300 -0.074300 0.139400 -5.946878 -1.479351 -12.618186 0.279318 0.189649 0.011096 5.240633 18.892945 -6.973906 -5.756654 -10.329034 -0.652559 -0.018300 -0.074300 0.139400 -6.472917 1.869160 -1.044799 -0.299028 -0.004385 -0.049884 -36.274373 29.198195 58.716589 0.018020 -1.017498 -0.031697 0.000000 0.003578 0.000518 -9.046260 19.518481 0.796270 -0.000000 0.000000 -0.000000 -1.807231 0.000005 0.000470 0.240133 -0.002408 0.010506 16.985314 -2.194945 -0.560565 14.330519 -1.241010 -0.186753 -0.266177 0.015954 0.008371 -24.473285 3.619007 -1.530507 3.198637 -0.915815 0.045266 
0.000000 0.088581 0.802864 0.612255 0.031316 2.928422 4.601195 2.655268 -37.765543 -0.000000 0.000000 0.000003 -0.000000 -0.000000 -0.000000 0.000000 0.005500 0.192500 -17.047001 -0.429128 1.498522 0.018300 -0.074300 0.139400 -5.946878 -1.479351 -12.618186 0.279318 0.189649 0.011096 6.539878 17.583759 -8.339466 -6.109983 -9.250147 -1.164847 -0.018300 -0.074300 0.139400 -6.472917 1.869160 -1.044799 -0.299028 -0.004385 -0.049884 -41.072202 24.453761 67.243499 0.018018 -1.017503 -0.031700 0.000000 0.003578 0.000518 -9.046260 19.518481 0.796270 -0.000000 0.000000 -0.000000 -1.807231 0.000005 0.000470 0.240133 -0.002408 0.010506 15.125923 -2.104461 -0.590445 19.865767 -1.481790 -0.243795 -0.266177 0.015954 0.008371 -23.113787 3.555795 -1.558305 3.198639 -0.915815 0.045266 
